<svg id="graphics" xmlns="http://www.w3.org/2000/svg" xmlns:xlink="http://www.w3.org/1999/xlink" viewBox="0 0 798.44 116.26"><defs><style>.cls-1{fill:url(#linear-gradient);}.cls-2{fill:url(#linear-gradient-2);}.cls-3{fill:url(#linear-gradient-3);}.cls-4{fill:url(#linear-gradient-4);}.cls-5{fill:url(#linear-gradient-5);}.cls-6{fill:url(#linear-gradient-6);}.cls-7{fill:url(#linear-gradient-7);}.cls-8{fill:url(#linear-gradient-8);}.cls-9{fill:url(#linear-gradient-9);}.cls-10{fill:url(#linear-gradient-10);}.cls-11{fill:url(#linear-gradient-11);}.cls-12{fill:url(#linear-gradient-12);}.cls-13{fill:url(#linear-gradient-13);}.cls-14{fill:url(#linear-gradient-14);}.cls-15{fill:url(#linear-gradient-15);}</style><linearGradient id="linear-gradient" x1="740.36" y1="-6.58" x2="740.36" y2="51.1" gradientUnits="userSpaceOnUse"><stop offset="0" stop-color="#76191c"/><stop offset="0.19" stop-color="#881d20"/><stop offset="0.58" stop-color="#b8272c"/><stop offset="0.65" stop-color="#c1292e"/></linearGradient><linearGradient id="linear-gradient-2" x1="740.36" y1="43.37" x2="740.36" y2="115.61" gradientUnits="userSpaceOnUse"><stop offset="0" stop-color="#76191c"/><stop offset="1" stop-color="#c1292e"/></linearGradient><linearGradient id="linear-gradient-3" x1="642.47" y1="47.01" x2="680.89" y2="97.73" gradientUnits="userSpaceOnUse"><stop offset="0" stop-color="#c1292e"/><stop offset="1" stop-color="#76191c"/></linearGradient><linearGradient id="linear-gradient-4" x1="621.91" y1="21.96" x2="651.88" y2="55" gradientUnits="userSpaceOnUse"><stop offset="0" stop-color="#c1292e"/><stop offset="0.1" stop-color="#b8272c"/><stop offset="0.7" stop-color="#881d20"/><stop offset="1" stop-color="#76191c"/></linearGradient><linearGradient id="linear-gradient-5" x1="554.59" y1="-0.47" x2="554.59" y2="138.17" gradientUnits="userSpaceOnUse"><stop offset="0.2" stop-color="#c1292e"/><stop offset="0.83" stop-color="#76191c"/></linearGradient><linearGradient id="linear-gradient-6" x1="554.58" y1="124.42" x2="554.58" y2="63.01" gradientUnits="userSpaceOnUse"><stop offset="0.1" stop-color="#76191c"/><stop offset="0.41" stop-color="#c1292e"/></linearGradient><linearGradient id="linear-gradient-7" x1="590.89" y1="116.22" x2="590.89" y2="116.22" gradientUnits="userSpaceOnUse"><stop offset="0" stop-color="#eb0c40"/><stop offset="0" stop-color="#ff4ec4"/></linearGradient><linearGradient id="linear-gradient-8" x1="360.73" y1="65.68" x2="476.83" y2="52.79" gradientUnits="userSpaceOnUse"><stop offset="0" stop-color="#c1292e"/><stop offset="0.89" stop-color="#76191c"/></linearGradient><linearGradient id="linear-gradient-9" x1="380.97" y1="58.17" x2="491.22" y2="58.17" gradientUnits="userSpaceOnUse"><stop offset="0.56" stop-color="#c1292e"/><stop offset="1" stop-color="#78191c"/></linearGradient><linearGradient id="linear-gradient-10" x1="309.89" y1="-6.66" x2="309.89" y2="51.01" xlink:href="#linear-gradient"/><linearGradient id="linear-gradient-11" x1="309.89" y1="43.29" x2="309.89" y2="115.52" xlink:href="#linear-gradient-2"/><linearGradient id="linear-gradient-12" x1="175.06" y1="33.87" x2="219.7" y2="105.13" gradientUnits="userSpaceOnUse"><stop offset="0.23" stop-color="#c1292e"/><stop offset="1" stop-color="#76191c"/></linearGradient><linearGradient id="linear-gradient-13" x1="218.59" y1="15.91" x2="219.36" y2="110.3" gradientUnits="userSpaceOnUse"><stop offset="0.86" stop-color="#c1292e"/><stop offset="1" stop-color="#76191c"/></linearGradient><linearGradient id="linear-gradient-14" x1="99.35" y1="3660.3" x2="77.41" y2="3781.49" gradientTransform="matrix(1, 0, 0, -1, 0, 3775.53)" gradientUnits="userSpaceOnUse"><stop offset="0.63" stop-color="#c1292e"/><stop offset="0.66" stop-color="#b8272c"/><stop offset="0.83" stop-color="#881d20"/><stop offset="0.92" stop-color="#76191c"/></linearGradient><linearGradient id="linear-gradient-15" x1="96.17" y1="30.84" x2="167.76" y2="98.5" gradientUnits="userSpaceOnUse"><stop offset="0.4" stop-color="#76191c"/><stop offset="0.73" stop-color="#c1292e"/><stop offset="0.75" stop-color="#c1292e"/></linearGradient></defs><path class="cls-1" d="M798.44,21.87A21.79,21.79,0,0,0,776.69.08H704a21.79,21.79,0,0,0,0,43.57h14.54V94.5h0a21.79,21.79,0,0,0,43.57,0h0V43.65h14.55A21.78,21.78,0,0,0,798.44,21.87Z"/><path class="cls-2" d="M762.14,94.5h0v-47h0V43.65H747.62a29,29,0,0,0-29,29V94.5h0a21.79,21.79,0,0,0,43.57,0Z"/><path class="cls-3" d="M672.71,21.87a21.79,21.79,0,1,0-43.57,0h0V94.48h0a21.79,21.79,0,0,0,43.57,0h0V21.87Z"/><path class="cls-4" d="M672.71,21.87h0a21.79,21.79,0,1,0-43.57,0h0V94.29a22.18,22.18,0,0,1,1.05-6.51c6.65-21.85,42.52-43.49,42.52-65.91"/><path class="cls-5" d="M590.89,0a21.78,21.78,0,0,0-21.78,21.78v0a14.53,14.53,0,0,1-29.05,0v0a21.78,21.78,0,1,0-43.56,0V94.43h0a21.78,21.78,0,0,0,21.78,21.78h72.61a21.77,21.77,0,0,0,21.78-21.78h0V21.82A21.79,21.79,0,0,0,590.89,0Z"/><path class="cls-6" d="M569.11,94.44h0a14.53,14.53,0,0,0-29.05,0h0a21.78,21.78,0,0,1-21.78,21.78h72.61A21.78,21.78,0,0,1,569.11,94.44Z"/><polygon class="cls-7" points="590.89 116.22 590.89 116.22 590.89 116.22 590.89 116.22"/><path class="cls-8" d="M428.4.08a58.09,58.09,0,1,0,58.08,58.09A58.09,58.09,0,0,0,428.4.08Z"/><path class="cls-9" d="M486.48,58.17a57.85,57.85,0,0,0-13.94-37.75,14.51,14.51,0,0,1-11.61,23.23H428.36a14.52,14.52,0,0,0,0,29h32.57a14.52,14.52,0,0,1,11.61,23.24A57.88,57.88,0,0,0,486.48,58.17Z"/><path class="cls-10" d="M368,21.78A21.78,21.78,0,0,0,346.23,0H273.57a21.78,21.78,0,0,0,0,43.56h14.54V94.42h0a21.78,21.78,0,0,0,43.56,0h0V43.57h14.55A21.78,21.78,0,0,0,368,21.78Z"/><path class="cls-11" d="M331.67,94.42h0v-47h0V43.57H317.15a29,29,0,0,0-29,29V94.42h0a21.78,21.78,0,0,0,43.56,0Z"/><path class="cls-12" d="M266.52,94.48h0a21.65,21.65,0,0,0-2.65-10.42L228.24,12.8a21.79,21.79,0,0,0-39.63,0L153,84.06a21.79,21.79,0,0,0,19.14,32.2h72.61a21.78,21.78,0,0,0,21.78-21.78Z"/><path class="cls-13" d="M266.52,94.47a21.78,21.78,0,0,1-21.78,21.79H172.13c22.43,0,44.06-35.87,65.91-42.52a21.85,21.85,0,0,1,6.51-1h.19A21.78,21.78,0,0,1,266.52,94.47Z"/><path class="cls-14" d="M143.12.08a21.79,21.79,0,0,1,19.13,32.2l-35.62,71.24a21.79,21.79,0,0,1-39.63,0l-4.55-9.1-4.54,9.08a21.8,21.8,0,0,1-35.23,6.36,22,22,0,0,1-4.4-6.34L2.65,32.29A21.71,21.71,0,0,1,0,21.86H0A21.78,21.78,0,0,1,21.78.08H143.12Z"/><path class="cls-15" d="M162.25,32.23l-35.62,71.23a21.59,21.59,0,0,1-4.87,6.8A21.78,21.78,0,0,1,87,103.49l-4.55-9.1,41.36-82.64A21.76,21.76,0,0,1,143.11,0h0A21.6,21.6,0,0,1,164,15.29,22.09,22.09,0,0,1,162.25,32.23Z"/></svg>