<svg xmlns="http://www.w3.org/2000/svg" xmlns:xlink="http://www.w3.org/1999/xlink" viewBox="0 0 164.9 116.23"><defs><style>.cls-1{fill:url(#linear-gradient);}.cls-2{fill:url(#linear-gradient-2);}</style><linearGradient id="linear-gradient" x1="99.35" y1="3660.27" x2="77.41" y2="3781.46" gradientTransform="matrix(1, 0, 0, -1, 0, 3775.47)" gradientUnits="userSpaceOnUse"><stop offset="0.63" stop-color="#c1292e"/><stop offset="0.66" stop-color="#b8272c"/><stop offset="0.83" stop-color="#881d20"/><stop offset="0.92" stop-color="#76191c"/></linearGradient><linearGradient id="linear-gradient-2" x1="96.17" y1="30.81" x2="167.76" y2="98.47" gradientUnits="userSpaceOnUse"><stop offset="0.4" stop-color="#76191c"/><stop offset="0.73" stop-color="#c1292e"/><stop offset="0.75" stop-color="#c1292e"/></linearGradient></defs><g id="Layer_2" data-name="Layer 2"><g id="graphics"><path class="cls-1" d="M143.12.05a21.79,21.79,0,0,1,19.13,32.21l-35.62,71.23a21.79,21.79,0,0,1-39.63,0l-4.55-9.1-4.54,9.08a21.8,21.8,0,0,1-35.23,6.36,21.85,21.85,0,0,1-4.4-6.34L2.65,32.26A21.7,21.7,0,0,1,0,21.84H0A21.78,21.78,0,0,1,21.78.05H143.12Z"/><path class="cls-2" d="M162.25,32.2l-35.62,71.24a21.7,21.7,0,0,1-4.87,6.8A21.79,21.79,0,0,1,87,103.46l-4.55-9.1,41.36-82.64A21.78,21.78,0,0,1,143.11,0h0A21.61,21.61,0,0,1,164,15.26,22.09,22.09,0,0,1,162.25,32.2Z"/></g></g></svg>